Coordinates
version=1
nRows=8
nColumns=63
inDegrees=yes

Units are S.I. units (second, meters, Newtons, ...)
If the header above contains a line with 'inDegrees', this indicates whether rotational values are in degrees (yes) or radians (no).

endheader
time	pelvis_tilt	pelvis_list	pelvis_rotation	pelvis_tx	pelvis_ty	pelvis_tz	hip_flexion_r	hip_adduction_r	hip_rotation_r	knee_angle_r	knee_angle_r_beta	ankle_angle_r	subtalar_angle_r	mtp_angle_r	hip_flexion_l	hip_adduction_l	hip_rotation_l	knee_angle_l	knee_angle_l_beta	ankle_angle_l	subtalar_angle_l	mtp_angle_l	L5_S1_Flex_Ext	L5_S1_Lat_Bending	L5_S1_axial_rotation	L4_L5_Flex_Ext	L4_L5_Lat_Bending	L4_L5_axial_rotation	L3_L4_Flex_Ext	L3_L4_Lat_Bending	L3_L4_axial_rotation	L2_L3_Flex_Ext	L2_L3_Lat_Bending	L2_L3_axial_rotation	L1_L2_Flex_Ext	L1_L2_Lat_Bending	L1_L2_axial_rotation	L1_T12_Flex_Ext	L1_T12_Lat_Bending	L1_T12_axial_rotation	Abs_r3	Abs_r2	Abs_r1	Abs_t1	Abs_t2	neck_flexion	neck_bending	neck_rotation	arm_flex_r	arm_add_r	arm_rot_r	elbow_flex_r	pro_sup_r	wrist_flex_r	wrist_dev_r	arm_flex_l	arm_add_l	arm_rot_l	elbow_flex_l	pro_sup_l	wrist_flex_l	wrist_dev_l
      4.38983051	     -0.89219192	      0.12718945	    112.37720998	      0.34415430	      0.75548631	      0.88162992	     -0.19873228	      1.98344185	     -8.10915133	     10.06356435	      0.17564233	     38.33137375	      9.91377200	      0.00000000	      5.45188496	     -7.17787618	      0.02620982	     12.66659100	      0.22107372	     35.94872572	      9.17338799	      0.00000000	     -0.02326037	     -0.03834484	      0.50342935	     -0.04319683	     -0.05099864	      0.53489368	     -0.03821446	     -0.09323166	      0.53489368	     -0.02658427	     -0.09323166	      0.44050068	     -0.02159958	     -0.07819281	      0.40903634	     -0.01329097	     -0.05939616	      0.37757201	     -0.16614647	     -0.43376455	      2.79992299	      0.00000000	      0.00000000	     14.94713462	      3.84458343	     -1.86852673	     67.93063411	    -16.77194844	     31.94372543	    140.53547570	     85.96809667	    -12.63033122	     13.54581310	     21.77887879	    -14.27636611	     24.74032011	    130.50417261	     80.18809142	    -14.92793619	     23.25231304
      4.40677966	     -0.67499137	      0.31932770	    110.88602848	      0.34276362	      0.75587144	      0.88046782	     -0.37895029	      2.07745111	     -6.91006567	      9.98301083	      0.17423641	     38.16681133	     10.01282341	      0.00000000	      4.67364499	     -7.31660006	      0.00260442	     12.28356827	      0.21438871	     35.58557843	      8.32934994	      0.00000000	     -0.00909911	     -0.00139524	      0.06320579	     -0.01689795	     -0.00185567	      0.06715615	     -0.01494892	     -0.00339238	      0.06715615	     -0.01039937	     -0.00339238	      0.05530506	     -0.00844943	     -0.00284517	      0.05135470	     -0.00519923	     -0.00216123	      0.04740434	     -0.06499400	     -0.01578322	      0.35153162	      0.00000000	      0.00000000	     15.93490357	      3.86045553	      0.85503610	     68.04041347	    -14.18931603	     32.69571208	    141.42497308	     84.78143911	    -12.35371570	     12.49979331	     20.49083028	    -15.75792756	     25.01421173	    133.73001428	     64.86204070	    -22.88327245	     23.25617300
      4.42372881	     -0.42413791	      0.41233302	    109.36699890	      0.34106294	      0.75626402	      0.87889866	     -0.48559035	      2.14697638	     -5.67438923	      9.91607600	      0.17306818	     37.91561939	     10.31559180	      0.00000000	      3.91008049	     -7.42948626	     -0.07345631	     11.78183136	      0.20563175	     35.14306384	      7.48304725	      0.00000000	      0.01427086	      0.05425506	     -0.36585282	      0.02650242	      0.07215923	     -0.38871863	      0.02344560	      0.13191575	     -0.38871863	      0.01631017	      0.13191575	     -0.32012122	      0.01325192	      0.11063691	     -0.29725542	      0.00815437	      0.08404108	     -0.27438962	      0.10193535	      0.61374406	     -2.03476365	      0.00000000	      0.00000000	     16.71894527	      3.88918700	      4.04917310	     68.10236715	    -11.87179922	     33.91169224	    141.91421771	     82.89306782	    -10.89270888	     10.42485578	     18.85532804	    -16.95382996	     24.77384087	    137.13636610	     45.49973767	    -29.67384509	     19.41332187
      4.44067797	     -0.21317462	      0.41162838	    108.05578918	      0.33907166	      0.75658210	      0.87723834	     -0.60075213	      2.17082618	     -4.36354820	      9.75169770	      0.17019923	     37.57817733	     10.46990292	      0.00000000	      3.29721781	     -7.46207597	     -0.13583949	     11.34321528	      0.19797645	     34.72372051	      6.81160458	      0.00000000	      0.04312990	      0.10248466	     -0.73414606	      0.08009653	      0.13630460	     -0.78003019	      0.07085811	      0.24918120	     -0.78003019	      0.04929316	      0.24918120	     -0.64237780	      0.04005042	      0.20898671	     -0.59649367	      0.02464442	      0.15874874	     -0.55060954	      0.30807255	      1.15932695	     -4.08310013	      0.00000000	      0.00000000	     17.36342742	      3.80471005	      6.28399198	     68.18066607	    -10.25102473	     35.33017583	    142.32940439	     80.91436830	     -8.59996408	      7.42750839	     17.37613657	    -17.72442303	     24.08481857	    140.05292704	     32.89234706	    -33.23443776	     16.04538898
      4.45762712	     -0.06471684	      0.35754281	    106.56809278	      0.33741826	      0.75685665	      0.87564996	     -0.66846250	      2.12638393	     -2.63321676	      9.61393217	      0.16779477	     37.14462138	     10.48329984	      0.00000000	      2.72703269	     -7.41647262	     -0.44981226	     10.94620855	      0.19104738	     34.46195952	      6.16785383	      0.00000000	      0.07174127	      0.14225271	     -0.95185994	      0.13323071	      0.18919610	     -1.01135119	      0.11786373	      0.34587323	     -1.01135119	      0.08199310	      0.34587323	     -0.83287745	      0.06661894	      0.29008172	     -0.77338620	      0.04099296	      0.22034944	     -0.71389496	      0.51244072	      1.60919107	     -5.29395944	      0.00000000	      0.00000000	     17.77127775	      3.97054029	      8.17186306	     68.51215013	     -9.10885167	     36.80998067	    142.83183724	     79.63029224	     -6.24113735	      4.54514311	     16.21769092	    -18.27050309	     23.88361550	    142.02930268	     27.97513491	    -34.44525327	     12.72984389
      4.47457627	     -0.07091611	      0.28832676	    104.89993197	      0.33629046	      0.75710504	      0.87432427	     -0.69694036	      1.89684453	     -1.20003609	      9.58013975	      0.16720498	     36.81890817	     10.93652217	      0.00000000	      2.11860317	     -7.21856344	     -0.98733410	     10.52427899	      0.18368332	     34.30566448	      5.57351474	      0.00000000	      0.09560987	      0.15412505	     -0.99044576	      0.17755708	      0.20498631	     -1.05234861	      0.15707745	      0.37473964	     -1.05234861	      0.10927252	      0.37473964	     -0.86664004	      0.08878332	      0.31429179	     -0.80473718	      0.05463148	      0.23873970	     -0.74283432	      0.68293172	      1.74349334	     -5.50856216	      0.00000000	      0.00000000	     17.80375342	      4.05263210	      9.18004740	     69.08712322	     -8.44824793	     37.96845895	    143.76343505	     78.98348336	     -5.38017697	      3.47141122	     15.51885449	    -18.46140479	     23.76890682	    143.20229448	     27.99819238	    -34.33347905	     11.86562224
      4.49152542	     -0.15975873	      0.23933272	    103.65638839	      0.33513189	      0.75744750	      0.87364165	     -0.83789495	      1.73608417	      1.32391227	      9.36169967	      0.16339248	     36.10414032	      9.37775364	      0.00000000	      1.68765892	     -6.92554056	     -1.03897040	     10.24295593	      0.17877331	     34.34153902	      4.80177714	      0.00000000	      0.11211488	      0.13998077	     -1.00434612	      0.20820854	      0.18617442	     -1.06711776	      0.18419353	      0.34034924	     -1.06711776	      0.12813609	      0.34034924	     -0.87880286	      0.10410987	      0.28544879	     -0.81603123	      0.06406244	      0.21683021	     -0.75325959	      0.80082535	      1.58349046	     -5.58587184	      0.00000000	      0.00000000	     17.53175824	      4.49279843	      9.65960635	     69.64740300	     -8.05345133	     38.84072886	    144.42687111	     73.22767409	     -4.03462972	      3.20037448	     15.05041108	    -18.38568762	     23.70363531	    143.70847004	     28.53286621	    -33.22417385	     11.25339804
      4.50847458	     -0.33177895	      0.22089149	    102.27895706	      0.33412708	      0.75789741	      0.87346060	     -0.87820032	      1.38259806	      2.75932800	      9.33216754	      0.16287705	     35.68194793	      9.17330273	      0.00000000	      1.24052709	     -6.54233500	     -1.38416414	      9.97763281	      0.17414254	     34.47252599	      4.01359095	      0.00000000	      0.11839034	      0.11346049	     -0.90593038	      0.21986271	      0.15090246	     -0.96255103	      0.19450350	      0.27586785	     -0.96255103	      0.13530832	      0.27586785	     -0.79268908	      0.10993727	      0.23136864	     -0.73606843	      0.06764824	      0.17575031	     -0.67944778	      0.84565039	      1.28348781	     -5.03851298	      0.00000000	      0.00000000	     16.87311593	      4.95607786	     10.05487566	     70.01422139	     -7.94481265	     39.04672531	    145.00480714	     68.16746619	     -4.19603655	      4.74038215	     14.75315125	    -17.93819313	     23.28408397	    143.78419340	     29.42625351	    -32.09593163	     12.23596536
